<svg width="72" height="100" viewBox="0 0 72 100" fill="none" xmlns="http://www.w3.org/2000/svg">
<path d="M59.6307 54.0883H50.7883V23.9449C50.7883 15.6172 44.0133 8.84219 35.6855 8.84219C27.3578 8.84219 20.5828 15.6172 20.5828 23.9449V54.0883H11.7404V23.9449C11.7404 10.742 22.482 0 35.6855 0C48.8891 0 59.6307 10.742 59.6307 23.9451V54.0883Z" fill="url(#paint0_linear_1_57)"/>
<path d="M71.3711 55.3471C71.3711 73.4894 45.4031 93.7533 37.775 99.3144C36.5307 100.222 34.8533 100.222 33.6088 99.3148C25.9785 93.7541 0 73.4898 0 55.3471C0 44.3857 8.88769 35.4982 19.849 35.4982C26.315 35.4982 32.0598 38.5894 35.692 43.381C39.3113 38.5894 45.056 35.4982 51.5221 35.4982C62.4834 35.4982 71.3711 44.3857 71.3711 55.3471Z" fill="url(#paint1_linear_1_57)"/>
<path d="M38.3615 65.7344L39.8092 71.7288C40.1324 73.0674 39.1182 74.3557 37.741 74.3557H33.6301C32.2529 74.3557 31.2387 73.0672 31.5619 71.7288L33.0096 65.7344C31.8129 64.9231 31.0066 63.5807 30.9328 62.042C30.8076 59.4293 33.0703 57.0526 35.6859 57.053C38.3186 57.0534 40.4434 59.1784 40.4434 61.811C40.4436 63.4457 39.6176 64.8827 38.3615 65.7344Z" fill="white"/>
<defs>
<linearGradient id="paint0_linear_1_57" x1="15.1092" y1="3.51179" x2="55.9269" y2="36.1866" gradientUnits="userSpaceOnUse">
<stop stop-color="#FF0000"/>
<stop offset="1" stop-color="#C00397"/>
</linearGradient>
<linearGradient id="paint1_linear_1_57" x1="5.02042" y1="39.6858" x2="54.9027" y2="89.5918" gradientUnits="userSpaceOnUse">
<stop stop-color="#FF0000"/>
<stop offset="1" stop-color="#C00397"/>
</linearGradient>
</defs>
</svg>
